<?xml version="1.0" standalone="no"?>
<!DOCTYPE svg PUBLIC "-//W3C//DTD SVG 20010904//EN"
 "http://www.w3.org/TR/2001/REC-SVG-20010904/DTD/svg10.dtd">
<svg version="1.0" xmlns="http://www.w3.org/2000/svg"
 width="300.000000pt" height="300.000000pt" viewBox="0 0 300.000000 300.000000"
 preserveAspectRatio="xMidYMid meet">
<metadata>
Created by potrace 1.10, written by Peter Selinger 2001-2011
</metadata>
<g transform="translate(0.000000,300.000000) scale(0.100000,-0.100000)"
fill="#000000" stroke="none">
<path d="M1110 2960 c-288 -49 -511 -162 -710 -360 -242 -241 -382 -582 -379
-920 l1 -105 19 155 c10 85 23 163 29 172 5 10 10 29 10 44 0 37 27 89 54 103
34 19 76 10 99 -21 20 -26 20 -29 3 -150 -9 -68 -16 -140 -16 -160 0 -21 -4
-38 -10 -38 -13 0 -14 -344 -1 -368 5 -9 15 -70 21 -134 7 -65 16 -118 19
-118 4 0 12 -26 18 -59 6 -32 21 -79 32 -104 12 -25 21 -51 21 -56 0 -6 5 -11
10 -11 6 0 10 -7 10 -15 0 -17 28 -65 45 -77 5 -4 6 -8 2 -8 -5 0 2 -15 15
-32 34 -49 41 -58 71 -90 15 -16 27 -32 27 -34 0 -10 29 -34 41 -34 7 0 9 -3
6 -7 -4 -3 10 -21 31 -40 56 -50 148 -113 156 -106 3 3 6 1 6 -5 0 -6 16 -16
35 -23 19 -7 35 -16 35 -20 0 -6 21 -14 85 -33 6 -2 14 -4 19 -4 5 0 12 -4 15
-9 14 -21 250 -71 339 -72 23 -1 42 -5 42 -11 0 -6 68 -10 185 -10 117 0 185
4 185 10 0 6 24 10 53 11 55 0 212 26 257 41 38 14 106 31 113 30 4 -1 7 2 7
8 0 5 6 10 14 10 16 0 129 59 137 72 3 5 9 8 13 6 3 -1 22 9 40 25 19 15 39
27 44 27 5 0 47 38 94 85 85 85 183 216 194 261 3 13 10 24 16 24 5 0 6 5 3
10 -3 6 -2 10 4 10 5 0 13 15 16 32 4 18 11 35 16 39 5 3 16 36 25 75 8 38 20
77 25 86 5 10 14 69 21 133 7 63 16 115 20 115 4 0 8 86 8 191 0 124 -3 188
-10 184 -6 -4 -10 14 -11 47 0 84 -48 318 -70 344 -5 6 -6 14 -2 17 3 4 1 7
-6 7 -7 0 -10 4 -7 8 6 10 -48 119 -90 182 -16 23 -35 53 -42 66 -33 60 -292
287 -292 257 0 -5 -4 -3 -8 3 -12 17 -79 54 -85 47 -4 -3 -7 -1 -7 5 0 7 -5
12 -11 12 -5 0 -31 9 -56 21 -25 11 -72 26 -104 32 -32 5 -56 14 -53 19 3 4
-4 8 -15 8 -24 0 -51 36 -51 67 0 36 22 73 46 79 86 22 278 -51 467 -177 48
-33 92 -59 97 -59 6 0 9 -3 8 -7 -1 -5 37 -46 83 -93 107 -108 144 -157 205
-270 16 -30 32 -56 37 -58 4 -2 7 -8 7 -13 0 -6 9 -28 19 -50 11 -22 23 -54
27 -72 3 -18 10 -34 15 -37 7 -5 15 -38 49 -220 6 -30 16 -107 24 -170 l13
-115 2 110 c3 254 -78 521 -224 745 -62 95 -238 271 -334 334 -219 144 -441
213 -706 221 l-130 4 170 -22 c96 -13 162 -25 153 -29 -10 -4 -28 -28 -40 -53
-21 -43 -21 -46 -5 -80 21 -45 21 -49 0 -40 -69 28 -188 40 -393 39 -463 -3
-814 -153 -1025 -439 -17 -22 -32 -42 -35 -45 -5 -5 -16 -23 -58 -98 -30 -54
-62 -140 -62 -169 0 -13 -4 -23 -10 -23 -5 0 -10 4 -10 9 0 5 -16 19 -35 31
-36 22 -85 24 -129 5 -17 -8 -17 -5 3 31 11 21 41 82 66 134 64 136 81 161
168 266 71 85 228 228 266 242 9 3 30 15 46 28 80 58 284 136 415 158 14 2 38
7 54 11 15 4 87 16 160 25 l131 18 -100 0 c-55 0 -147 -8 -205 -18z m690 -211
c30 -6 64 -11 75 -13 55 -5 213 -60 298 -102 235 -116 432 -342 516 -590 105
-312 105 -776 0 -1087 -84 -250 -281 -475 -516 -591 -365 -181 -981 -181
-1346 0 -189 93 -355 257 -452 445 -113 219 -162 521 -137 836 12 150 48 350
70 390 7 12 12 27 12 33 0 21 90 191 131 247 55 75 158 178 233 233 59 43 224
130 246 130 7 0 26 7 43 14 44 20 203 53 337 70 61 7 433 -4 490 -15z"/>
<path d="M1195 2151 c-16 -10 -81 -71 -143 -135 l-114 -118 -35 41 c-41 49
-80 71 -123 71 -99 0 -143 -102 -81 -186 32 -43 142 -151 181 -177 30 -21 82
-22 118 -3 29 16 329 315 356 356 19 29 21 78 4 115 -24 53 -107 71 -163 36z
m119 -37 c17 -18 26 -38 26 -58 0 -27 -22 -54 -165 -198 -91 -92 -175 -174
-187 -182 -55 -39 -98 -14 -230 131 -67 73 -74 105 -32 147 39 39 73 34 135
-19 80 -68 87 -66 230 72 66 65 126 121 132 125 25 16 65 7 91 -18z"/>
<path d="M1604 1919 c-70 -35 -70 -165 1 -197 18 -9 118 -12 341 -12 l316 0
34 34 c26 26 34 42 34 71 0 44 -25 89 -57 104 -31 14 -639 14 -669 0z m629
-18 c57 -22 84 -84 54 -121 -39 -50 -44 -51 -346 -50 -289 1 -307 3 -343 41
-38 39 -4 120 55 132 45 9 557 7 580 -2z"/>
<path d="M1195 1351 c-16 -10 -81 -71 -143 -136 l-114 -117 -29 35 c-58 71
-127 94 -188 63 -46 -24 -66 -98 -40 -149 16 -32 169 -186 201 -203 32 -17 81
-18 111 -3 29 15 311 293 348 343 82 110 -31 239 -146 167z m119 -37 c17 -18
26 -37 26 -60 0 -29 -19 -52 -182 -213 -231 -228 -212 -224 -357 -79 -86 86
-101 106 -101 133 0 41 42 85 81 85 18 0 45 -15 80 -45 81 -69 87 -67 237 80
108 107 131 125 158 125 20 0 40 -9 58 -26z"/>
<path d="M1601 1116 c-69 -38 -67 -162 4 -194 41 -19 637 -17 674 2 70 36 66
162 -6 195 -37 17 -641 14 -672 -3z m673 -41 c14 -16 26 -42 26 -56 0 -31 -38
-76 -72 -84 -12 -3 -152 -5 -310 -3 l-288 3 -25 27 c-42 45 -27 114 30 138 11
5 154 8 317 7 l296 -2 26 -30z"/>
<path d="M2970 1395 c-11 -129 -31 -289 -38 -300 -6 -8 -28 -111 -34 -152 -1
-7 -5 -13 -10 -13 -4 0 -8 -10 -8 -23 0 -12 -11 -43 -25 -69 -14 -26 -25 -54
-25 -62 0 -8 -3 -16 -7 -18 -5 -2 -21 -27 -37 -57 -57 -106 -111 -178 -205
-271 -118 -118 -165 -153 -281 -216 -30 -16 -56 -32 -58 -36 -2 -5 -9 -8 -15
-8 -6 0 -29 -9 -51 -19 -43 -20 -125 -46 -138 -43 -5 1 -8 -2 -8 -7 0 -5 -24
-12 -52 -16 -29 -3 -62 -10 -73 -16 -11 -5 -94 -18 -185 -28 l-165 -18 110 -2
c267 -3 526 74 756 225 152 100 353 330 421 484 97 218 150 461 137 630 -4 54
-6 64 -9 35z"/>
<path d="M20 1355 c-3 -99 -1 -128 16 -230 32 -200 102 -382 209 -545 64 -97
240 -273 335 -335 226 -148 491 -226 755 -224 l110 1 -165 19 c-91 10 -174 23
-185 28 -11 5 -45 14 -75 20 -62 11 -135 34 -196 62 -22 11 -43 19 -47 19 -12
0 -182 104 -232 142 -16 13 -68 61 -115 107 -47 46 -88 83 -92 83 -5 -1 -8 3
-8 9 0 6 -20 38 -44 72 -24 34 -55 83 -69 108 -13 25 -29 54 -35 65 -28 51
-62 135 -62 153 0 12 -4 21 -9 21 -5 0 -14 33 -21 73 -6 39 -15 79 -20 88 -5
9 -16 84 -25 165 -20 178 -23 191 -25 99z"/>
</g>
</svg>
